<svg xmlns="http://www.w3.org/2000/svg" width="24" height="24" viewBox="0 0 24 24"><defs><style>.a{fill:rgba(255,255,255,0);}.b{fill:#707070;}</style></defs><rect class="a" width="24" height="24"/><path class="b" d="M9.174,20H2a2,2,0,0,1-2-2V2A2,2,0,0,1,2,0H14a2,2,0,0,1,2,2V13.17a2.014,2.014,0,0,1-.59,1.42L10.59,19.41A2.012,2.012,0,0,1,9.174,20ZM10,13a1,1,0,0,0-1,1v4.18L14.18,13ZM3.5,8a.5.5,0,0,0-.5.5v1a.5.5,0,0,0,.5.5h5A.5.5,0,0,0,9,9.5v-1A.5.5,0,0,0,8.5,8Zm0-4a.5.5,0,0,0-.5.5v1a.5.5,0,0,0,.5.5h9a.5.5,0,0,0,.5-.5v-1a.5.5,0,0,0-.5-.5Z" transform="translate(4 2)"/></svg>