<svg xmlns="http://www.w3.org/2000/svg" width="24" height="24" viewBox="0 0 24 24"><defs><style>.a{fill:rgba(255,255,255,0);}.b{fill:#707070;}</style></defs><rect class="a" width="24" height="24"/><path class="b" d="M10,20a2,2,0,0,1-2-2h4A2,2,0,0,1,10,20Zm7-4H3a1,1,0,0,1-1-1v-.59a1.008,1.008,0,0,1,.29-.7l.83-.83A3.021,3.021,0,0,0,4,10.76V8A6.035,6.035,0,0,1,5.2,4.4l.9-1.2A3.014,3.014,0,0,1,8.5,2H9V.5A.5.5,0,0,1,9.5,0h1a.5.5,0,0,1,.5.5V2h.5a3.014,3.014,0,0,1,2.4,1.2l.9,1.2A6.035,6.035,0,0,1,16,8v2.76a3.021,3.021,0,0,0,.88,2.12l.83.83a1.008,1.008,0,0,1,.29.7V15A1,1,0,0,1,17,16Zm2.49-8h-1A.5.5,0,0,1,18,7.52a8.088,8.088,0,0,0-1.64-4.31.363.363,0,0,1,.06-.5l1-.78a.447.447,0,0,1,.27-.092l.039,0A.382.382,0,0,1,18,2a10.1,10.1,0,0,1,2,5.47.547.547,0,0,1-.15.37.5.5,0,0,1-.36.16ZM1.5,8H.5a.483.483,0,0,1-.36-.16A.468.468,0,0,1,0,7.47,10.012,10.012,0,0,1,2,2a.373.373,0,0,1,.23-.16l.043,0a.4.4,0,0,1,.256.093l1,.78a.362.362,0,0,1,.059.5A8.1,8.1,0,0,0,2,7.52.513.513,0,0,1,1.5,8Z" transform="translate(1.999 2)"/></svg>